# xmcd
#
# Track frame offsets:
# 150
# 19010
# 36677
# 51505
# 71370
# 85980
# 103235
# 120737
# 138090
# 154355
# 171882
# 189427
#
# Disc length: 2779 seconds
#
#
# Revision: 0
# Processed by: cddbd v1.5.2PL0 Copyright (c) Steve Scherf et al.
# Submitted via: FreeRIP 2.90 
#
DISCID=aa0ad90c
DTITLE=As Sertanejas Mais Romanticas - As Sertanejas Mais Romanticas
DYEAR=1900
DGENRE=country
TTITLE0=Leandro e Leonardo - Desculpe mas eu vou chorar
TTITLE1=Gian e Giovani - Olha amor
TTITLE2=Joao Paulo e Daniel - Ta faltando amor
TTITLE3=Roberta Miranda - Tinha que acontecer
TTITLE4=Rick e Renner - Voce decide
TTITLE5=Chrystian e Ralf - Ausencia
TTITLE6=Milionario e Jose Rico - Tribunal do amor
TTITLE7=Matogrosso e Mathias - 24 horas de amor
TTITLE8=Marcelo Aguiar - Aguenta as pontas coracao
TTITLE9=Cezar e Paulinho - Da agua pro vinho
TTITLE10=Mauricio e Mauri - Momentos
TTITLE11=Jayne - E agora o que e que eu faco
EXTD=
EXTT0=
EXTT1=
EXTT2=
EXTT3=
EXTT4=
EXTT5=
EXTT6=
EXTT7=
EXTT8=
EXTT9=
EXTT10=
EXTT11=
PLAYORDER=
